<svg width="66" height="58" viewBox="0 0 66 58" fill="none" xmlns="http://www.w3.org/2000/svg">
<g filter="url(#filter0_d_377_397)">
<path d="M18.2841 0.27523C17.0456 2.20183 15.3025 5.43578 15.4401 5.57339C15.5318 5.66514 21.908 5.77982 29.5915 5.80275C42.3438 5.84862 43.5594 5.87156 43.6282 6.2156C43.674 6.44495 43.2612 7.29358 42.7566 8.1422C42.2291 9.01376 41.7016 9.93119 41.5869 10.1835C41.4493 10.4587 41.2199 10.9174 41.0364 11.2156C40.8759 11.5367 40.7841 11.8807 40.83 11.9725C41.0135 12.2706 53.9951 12.1789 53.9951 11.8807C53.9951 11.7431 53.697 11.1239 53.3071 10.5046C52.9171 9.90826 52.619 9.31193 52.619 9.19725C52.619 9.1055 52.3208 8.57798 51.9309 8.07339C51.5639 7.54587 51.2428 7.04128 51.2428 6.97248C51.2428 6.88073 50.8071 6.07798 50.2566 5.18349C49.7061 4.28899 49.2016 3.3945 49.1098 3.21101C49.0181 3.02752 48.7428 2.54587 48.4905 2.1789C48.2382 1.78899 47.9171 1.23853 47.8025 0.917431C47.6649 0.619266 47.4126 0.275229 47.2749 0.183486C47.1144 0.0917429 40.5777 0 32.7337 0C21.5639 0 18.4217 0.0688075 18.2841 0.27523V0.27523ZM11.197 12.6835C11.0135 12.7982 10.7612 13.0963 10.6236 13.3716C10.5089 13.6468 10.3254 14.0367 10.1878 14.2202C9.54559 15.2064 7.89421 18.0734 7.89421 18.211C7.89421 18.3028 7.71072 18.6468 7.45843 18.9908C7.22907 19.3349 6.44926 20.6422 5.71531 21.9037C4.98137 23.1651 4.29329 24.2202 4.17861 24.2661C3.85751 24.4037 3.97219 25.0917 4.49972 25.9174C5.46302 27.4312 5.5777 27.6376 5.80706 28.1422C6.2199 29.0596 7.20614 30.5046 7.41256 30.5046C7.52724 30.5046 7.87128 30 8.19238 29.4037C9.31623 27.2706 12.0227 22.5688 12.7337 21.5138C12.986 21.1697 13.1694 20.8257 13.1694 20.7569C13.1694 20.6881 13.9493 19.3349 14.8896 17.7523C15.83 16.1697 16.6098 14.8165 16.6098 14.7248C16.6098 14.656 16.885 14.1972 17.2061 13.7156C17.5502 13.2339 17.7566 12.7523 17.6649 12.6605C17.4126 12.4312 11.6098 12.4541 11.197 12.6835V12.6835ZM26.5181 12.6147C25.486 12.7294 25.486 12.7294 24.385 14.9083C24.1098 15.4817 23.5364 16.445 23.1465 17.0872C22.7337 17.7064 22.0685 18.8532 21.6557 19.6101C21.2428 20.367 20.7841 21.1468 20.6465 21.3303C20.5089 21.5138 20.1878 22.0413 19.9355 22.4771C19.1327 23.922 18.4676 25.0917 17.986 25.9174C17.1603 27.3165 16.5639 28.3486 13.9034 32.9817L11.2887 37.5L11.7016 38.3028C11.9309 38.7385 12.5502 39.8165 13.0777 40.711C13.5823 41.5826 14.0869 42.5459 14.1786 42.8211C14.2704 43.1193 14.4309 43.3486 14.5227 43.3486C14.6144 43.3486 14.9126 43.7844 15.2107 44.3119C15.486 44.8624 15.9217 45.5963 16.174 45.9862C16.4034 46.3532 16.7474 46.9725 16.9309 47.3624C17.1144 47.7294 17.5731 48.4862 17.963 49.0367L18.674 50H47.1373L47.5272 49.3119C47.7337 48.945 47.986 48.6239 48.1006 48.6239C48.1924 48.6239 48.2612 48.5092 48.2612 48.3716C48.2612 48.2339 48.6052 47.5229 49.041 46.8119C49.4538 46.1009 50.096 45 50.4401 44.3807C50.7841 43.7385 51.7704 42.0413 52.619 40.5963C57.8483 31.6743 57.7566 31.8578 57.4126 31.6284C57.2291 31.5138 56.7933 31.4679 56.4263 31.5367C56.0594 31.6055 54.7061 31.6514 53.4217 31.6514H51.0594L49.6373 34.1055C48.8575 35.4817 47.3438 38.0505 46.2887 39.8394C45.2337 41.6284 44.3621 43.1881 44.3621 43.3257C44.3621 44.0138 43.3071 44.0826 32.596 44.0596C26.6557 44.0367 21.7933 44.0138 21.7704 43.9679C21.174 43.211 18.2153 37.867 18.2153 37.5917C18.2153 37.3624 18.674 36.3991 19.2474 35.4817C19.8208 34.5413 20.2795 33.6927 20.2795 33.6239C20.2795 33.5321 20.5318 33.1193 20.8529 32.7064C21.174 32.2936 21.4263 31.8807 21.4263 31.789C21.4263 31.6972 21.9538 30.7569 22.5731 29.6789C23.2153 28.6009 23.7199 27.7064 23.7199 27.6606C23.7199 27.5688 26.3346 23.0963 27.2749 21.6055C27.619 21.078 28.1465 20.1606 28.4447 19.5642C28.7658 18.9679 29.5456 17.6376 30.1649 16.5826C30.7841 15.5275 31.2887 14.6101 31.2887 14.5183C31.2887 14.4495 31.5639 14.0367 31.885 13.6009C32.2061 13.1651 32.4126 12.7523 32.3438 12.6605C32.1603 12.4771 27.9171 12.4541 26.5181 12.6147V12.6147Z" fill="white"/>
<path d="M36.3576 19.4723C36.0365 19.8392 35.5089 20.642 35.1878 21.2383C34.4309 22.7291 33.7429 23.9677 28.0548 33.7613C27.5502 34.5869 27.1603 35.3668 27.1603 35.4585C27.1603 35.5502 26.9309 35.8713 26.6786 36.1466C26.0594 36.8117 26.2429 37.4998 26.9997 37.2934C27.275 37.2246 30.3484 37.1558 33.8346 37.1558H40.142L40.6466 36.1695C41.2888 34.931 42.0915 33.5319 42.619 32.7521C43.33 31.6741 43.1236 31.5824 39.7521 31.5594C36.7475 31.5365 36.6787 31.5365 36.6098 31.0319C36.564 30.7108 36.9998 29.7246 37.7337 28.509C38.3988 27.408 39.1328 26.1236 39.3621 25.642L39.775 24.7704H50.5548C57.3209 24.7704 61.3346 24.6787 61.3346 24.5411C61.3346 24.2888 58.6741 19.7704 58.1695 19.197C57.8484 18.8301 57.0915 18.8071 47.3897 18.8071L36.9539 18.8301L36.3576 19.4723Z" fill="white"/>
</g>
<defs>
<filter id="filter0_d_377_397" x="0" y="0" width="65.3347" height="58" filterUnits="userSpaceOnUse" color-interpolation-filters="sRGB">
<feFlood flood-opacity="0" result="BackgroundImageFix"/>
<feColorMatrix in="SourceAlpha" type="matrix" values="0 0 0 0 0 0 0 0 0 0 0 0 0 0 0 0 0 0 127 0" result="hardAlpha"/>
<feOffset dy="4"/>
<feGaussianBlur stdDeviation="2"/>
<feComposite in2="hardAlpha" operator="out"/>
<feColorMatrix type="matrix" values="0 0 0 0 0 0 0 0 0 0 0 0 0 0 0 0 0 0 0.25 0"/>
<feBlend mode="normal" in2="BackgroundImageFix" result="effect1_dropShadow_377_397"/>
<feBlend mode="normal" in="SourceGraphic" in2="effect1_dropShadow_377_397" result="shape"/>
</filter>
</defs>
</svg>
